<svg width="20" height="12" viewBox="0 0 20 12" fill="none" xmlns="http://www.w3.org/2000/svg">
<path d="M0.256 12L4.624 0.799999H6.576L10.912 12H8.752L6.352 5.632C6.29867 5.504 6.224 5.30133 6.128 5.024C6.04267 4.74667 5.94667 4.448 5.84 4.128C5.73333 3.79733 5.63733 3.49333 5.552 3.216C5.46667 2.928 5.40267 2.72 5.36 2.592L5.76 2.576C5.696 2.78933 5.62133 3.02933 5.536 3.296C5.45067 3.56267 5.36 3.84 5.264 4.128C5.168 4.416 5.072 4.69333 4.976 4.96C4.89067 5.22667 4.81067 5.46667 4.736 5.68L2.336 12H0.256ZM2.24 9.44L2.96 7.632H8.064L8.832 9.44H2.24ZM11.9079 8.336V6.672H19.9239V8.336H11.9079ZM14.9639 11.344V3.584H16.8519V11.344H14.9639Z" fill="#212529"/>
</svg>
