<svg width="20" height="20" viewBox="0 0 20 20" fill="none" xmlns="http://www.w3.org/2000/svg">
<path d="M17.3048 0H2.69504C1.20664 0 0 1.20659 0 2.69504V17.3049C0 18.7933 1.20659 19.9999 2.69504 19.9999H9.90049L9.91277 12.853H8.05601C7.94011 12.853 7.82894 12.8071 7.74683 12.7253C7.66472 12.6435 7.61837 12.5325 7.61793 12.4166L7.60903 10.1129C7.60881 10.0552 7.61998 9.99804 7.6419 9.9447C7.66382 9.89135 7.69606 9.84285 7.73676 9.80199C7.77747 9.76113 7.82584 9.72871 7.87911 9.70659C7.93237 9.68447 7.98948 9.67308 8.04715 9.67308H9.90054V7.44709C9.90054 4.86384 11.4782 3.45724 13.7826 3.45724H15.6736C15.7898 3.45724 15.9012 3.5034 15.9834 3.58557C16.0656 3.66773 16.1117 3.77917 16.1117 3.89537V5.83789C16.1117 5.95405 16.0656 6.06545 15.9835 6.14761C15.9014 6.22976 15.79 6.27595 15.6738 6.27602L14.5134 6.27655C13.2602 6.27655 13.0175 6.87207 13.0175 7.74602V9.67313H15.7713C16.0336 9.67313 16.2372 9.90225 16.2063 10.1628L15.9332 12.4666C15.9206 12.5731 15.8694 12.6713 15.7892 12.7425C15.709 12.8138 15.6055 12.8531 15.4982 12.8531H13.0298L13.0175 20H17.3049C18.7933 20 19.9999 18.7934 19.9999 17.305V2.69504C19.9998 1.20659 18.7932 0 17.3048 0Z" fill="#212529"/>
</svg>
