<svg width="20" height="20" viewBox="0 0 20 20" fill="none" xmlns="http://www.w3.org/2000/svg">
<g clip-path="url(#clip0_401_165)">
<path d="M3.38469 10.4312C3.38469 11.8517 3.85776 12.7389 4.33212 13.5222C4.01546 13.8376 3.85776 14.5645 5.75135 14.9427C8.1193 15.4158 8.1193 13.0491 9.06674 12.5761C9.82315 12.1915 9.6911 11.2043 9.37571 10.8889C8.42956 10.8889 6.5552 10.9312 6.06161 9.94274C5.58853 8.9953 6.06161 8.52223 7.48212 8.04787L9.53341 7.84146C9.53341 6.17479 9.66161 2.88376 9.66161 1.68761C9.66161 0.740175 8.25135 0.740175 8.25135 1.68761L7.777 6.42223H7.45135C7.25648 5.00171 6.68212 1.43761 6.20905 0.26838C6.077 -0.102133 4.8052 -0.207261 4.8052 0.737611L5.75135 6.41966C4.96289 5.15812 3.03341 2.75812 2.43725 2.15941C1.96418 1.68633 0.853919 2.15941 1.49494 3.32992L4.33597 7.59018L4.12571 7.84659C3.4911 7.20941 2.32828 5.89146 1.49494 5.22479C0.661612 4.55812 -0.0140294 5.86582 0.659047 6.42223C1.60264 7.20941 3.38469 9.23377 3.38469 10.4312Z" fill="#212529"/>
<path d="M17.9526 12.1634C18.7962 11.0211 18.9385 10.0314 19.027 9.11471C19.468 9.04804 20.0257 8.5583 18.727 7.12881C17.1026 5.34163 16.8642 6.66599 15.8218 6.48779C14.9872 6.34291 12.8539 7.11984 11.9077 7.59291C10.709 8.19291 10.0283 8.39548 8.83082 8.42625C5.11287 8.52497 5.7539 10.5968 10.9603 10.4339L11.4629 10.5968C10.4706 11.9403 8.41159 14.507 7.70005 15.4686C7.13723 16.2301 8.26928 17.0647 8.83082 16.3032L12.0231 12.775L12.2795 12.9673C11.5924 14.2262 9.93851 17.4365 9.62441 18.6583C9.52569 19.0429 10.4859 19.8827 11.0488 19.1211L13.6603 13.9929C13.5462 15.4775 13.6706 18.5532 13.7975 19.3904C13.8962 20.0519 15.0795 20.3327 15.2539 19.0057L15.4975 13.8903L15.8154 13.8134C15.9436 14.6955 16.1001 16.4468 16.3783 17.4814C16.6565 18.516 17.9706 17.866 17.7616 17.0147C17.4744 15.8147 17.2411 13.1275 17.9526 12.1634Z" fill="#212529"/>
</g>
<defs>
<clipPath id="clip0_401_165">
<rect width="20" height="20" fill="white"/>
</clipPath>
</defs>
</svg>
