<svg width="18" height="18" viewBox="0 0 18 18" fill="none" xmlns="http://www.w3.org/2000/svg">
<path fill-rule="evenodd" clip-rule="evenodd" d="M0.438738 0.457933C0.719747 0.176726 1.10083 0.0187527 1.49817 0.0187527C1.89552 0.0187527 2.2766 0.176726 2.55761 0.457933L8.46166 6.36793C8.60217 6.50853 8.79271 6.58752 8.99138 6.58752C9.19005 6.58752 9.38059 6.50853 9.5211 6.36793L15.4237 0.457933C15.5619 0.314667 15.7272 0.200394 15.9101 0.12178C16.0929 0.0431668 16.2895 0.00178736 16.4885 5.66356e-05C16.6875 -0.00167409 16.8848 0.0362781 17.0689 0.111699C17.2531 0.187121 17.4204 0.2985 17.5611 0.439339C17.7018 0.580179 17.8131 0.747657 17.8884 0.932001C17.9638 1.11635 18.0017 1.31387 17.9999 1.51303C17.9982 1.7122 17.9569 1.90903 17.8783 2.09204C17.7998 2.27504 17.6856 2.44056 17.5425 2.57893L11.6385 8.48893C11.498 8.62958 11.4191 8.82031 11.4191 9.01918C11.4191 9.21805 11.498 9.40879 11.6385 9.54943L17.5425 15.4579C17.8155 15.7408 17.9665 16.1197 17.9631 16.513C17.9597 16.9063 17.8021 17.2825 17.5243 17.5607C17.2464 17.8388 16.8706 17.9965 16.4777 17.9999C16.0848 18.0034 15.7063 17.8522 15.4237 17.5789L9.5196 11.6689C9.37909 11.5283 9.18856 11.4493 8.98988 11.4493C8.79121 11.4493 8.60067 11.5283 8.46017 11.6689L2.55761 17.5789C2.27499 17.8522 1.89646 18.0034 1.50356 17.9999C1.11066 17.9965 0.734824 17.8388 0.456992 17.5607C0.179159 17.2825 0.0215641 16.9063 0.0181499 16.513C0.0147358 16.1197 0.165776 15.7408 0.438738 15.4579L6.3428 9.54793C6.48326 9.40728 6.56217 9.21655 6.56217 9.01768C6.56217 8.81881 6.48326 8.62808 6.3428 8.48743L0.438738 2.57893C0.157814 2.29764 0 1.91618 0 1.51843C0 1.12069 0.157814 0.739224 0.438738 0.457933Z" fill="#6C757D"/>
</svg>
