<svg width="64" height="64" viewBox="0 0 64 64" fill="none" xmlns="http://www.w3.org/2000/svg">
<g clip-path="url(#clip0_673_937)">
<mask id="mask0_673_937" style="mask-type:luminance" maskUnits="userSpaceOnUse" x="0" y="0" width="64" height="64">
<path d="M0 0.00018692H63.9998V64H0V0.00018692Z" fill="white"/>
</mask>
<g mask="url(#mask0_673_937)">
<path d="M14.0088 15.2524C15.4454 13.7513 17.0094 12.1361 18.7262 10.9713" stroke="#B9E6FE" stroke-width="3" stroke-miterlimit="10" stroke-linecap="round" stroke-linejoin="round"/>
<path d="M49.9913 48.7476C49.1788 49.5966 48.2853 50.5234 47.4126 51.3149" stroke="#B9E6FE" stroke-width="3" stroke-miterlimit="10" stroke-linecap="round" stroke-linejoin="round"/>
<path d="M19.7424 10.3938C20.9987 9.72256 22.4399 9.23118 24.2262 8.96881C26.8262 8.58756 29.2837 8.22756 30.7474 7.81756C33.7012 6.99006 35.7499 4.31757 35.7499 1.25008H28.2499C17.775 1.25008 12.5462 5.93257 8.59373 10.0613C6.35248 12.4038 4.21499 14.6088 1.25 15.6338V28.25H2.875C9.12123 28.25 15.1125 24.9486 19.4299 20.435C21.0099 18.7813 22.1174 17.6312 23.2337 17.03C25.0574 16.05 25.7424 13.775 24.7574 11.9513C23.7874 10.1488 21.5549 9.46256 19.7424 10.3938ZM19.7424 10.3938C19.0292 10.7714 18.3787 11.2064 17.7462 11.7025" stroke="#B9E6FE" stroke-width="3" stroke-miterlimit="10" stroke-linecap="round" stroke-linejoin="round"/>
<path d="M10.6087 44.6451C9.72335 43.1159 9.22548 41.5209 8.96873 39.7738C8.58748 37.1737 8.22748 34.7163 7.81748 33.2525C6.98998 30.2987 4.31749 28.2501 1.25 28.2501V35.7501C1.25 46.225 5.93249 51.4538 10.0612 55.4063C12.4037 57.6475 14.6087 59.785 15.6337 62.75H28.2499V61.125C28.2499 54.8788 24.9487 48.8874 20.4349 44.5699C18.7812 42.9901 17.6312 41.8824 17.03 40.7663C16.05 38.9426 13.775 38.2574 11.9512 39.2426C10.2035 40.1831 9.29948 42.4502 10.6087 44.6451ZM10.6087 44.6451C11.0233 45.3674 11.6187 46.216 12.4875 47.1925" stroke="#B9E6FE" stroke-width="3" stroke-miterlimit="10" stroke-linecap="round" stroke-linejoin="round"/>
<path d="M15.2526 49.9912C14.4193 49.1938 13.4813 48.2905 12.6851 47.4125" stroke="#B9E6FE" stroke-width="3" stroke-miterlimit="10" stroke-linecap="round" stroke-linejoin="round"/>
<path d="M51.5125 16.8076C52.3639 17.7746 52.9433 18.5229 53.6062 19.7425M53.6062 19.7425C54.2774 20.9988 54.7687 22.44 55.0312 24.2263C55.4124 26.8263 55.7724 29.2838 56.1824 30.7476C57.0099 33.7013 59.6824 35.75 62.7499 35.75V28.25C62.7499 17.7751 58.0674 12.5463 53.9387 8.59383C51.5962 6.35259 49.3912 4.21509 48.3662 1.2501H35.75V2.8751C35.75 9.12133 39.0512 15.1126 43.565 19.43C45.2187 21.01 46.3687 22.1175 46.97 23.2338C47.95 25.0575 50.225 25.7425 52.0487 24.7575C53.8512 23.7875 54.5374 21.555 53.6062 19.7425Z" stroke="#B9E6FE" stroke-width="3" stroke-miterlimit="10" stroke-linecap="round" stroke-linejoin="round"/>
<path d="M48.7476 14.0088C49.8082 15.0237 51.1369 16.3042 52.0985 17.4937" stroke="#B9E6FE" stroke-width="3" stroke-miterlimit="10" stroke-linecap="round" stroke-linejoin="round"/>
<path d="M28.25 26.375C31.1 26.375 32 29.625 32 29.625C32 29.625 32.9 26.375 35.75 26.375C37.97 26.375 39.5 28.2388 39.5 30.4463C39.5 32.2225 38.4662 33.65 36.725 35.2938C35.4737 36.4725 33.8587 37.7638 32 39.375C27.5525 35.52 24.5 33.4988 24.5 30.4463C24.5 28.2388 26.03 26.375 28.25 26.375Z" stroke="#B9E6FE" stroke-width="3" stroke-miterlimit="10" stroke-linecap="round" stroke-linejoin="round"/>
<path d="M52.75 56.25C52.6118 56.25 52.5 56.3619 52.5 56.5C52.5 56.6381 52.6118 56.75 52.75 56.75C52.8881 56.75 53 56.6381 53 56.5C53 56.3619 52.8881 56.25 52.75 56.25Z" fill="#B9E6FE" stroke="#B9E6FE" stroke-width="3"/>
<path d="M47.1924 51.5125C44.8383 53.5897 42.6832 54.6036 39.7737 55.0313C37.1737 55.4125 34.7162 55.7725 33.2525 56.1825C30.2987 57.01 28.25 59.6825 28.25 62.75H35.75C41.0845 62.75 45.0583 61.5358 48.1959 59.7985" stroke="#B9E6FE" stroke-width="3" stroke-miterlimit="10" stroke-linecap="round" stroke-linejoin="round"/>
<path d="M56.7524 52.5517C58.5399 50.7577 60.3808 49.1854 62.7498 48.3664V35.7502H61.1248C54.8785 35.7502 48.8874 39.0515 44.5699 43.5651C42.9898 45.2189 41.8824 46.3689 40.7661 46.9702C38.9425 47.9501 38.2575 50.2252 39.2423 52.0489C40.1983 53.8253 42.4738 54.6864 44.6449 53.3914" stroke="#B9E6FE" stroke-width="3" stroke-miterlimit="10" stroke-linecap="round" stroke-linejoin="round"/>
</g>
</g>
<defs>
<clipPath id="clip0_673_937">
<rect width="64" height="64" fill="white"/>
</clipPath>
</defs>
</svg>
