<svg width="20" height="20" viewBox="0 0 20 20" fill="none" xmlns="http://www.w3.org/2000/svg">
<path d="M16.7857 3.57143H12.9286V2.60714C12.9286 2.18091 12.7592 1.77213 12.4578 1.47073C12.1564 1.16934 11.7477 1.00001 11.3214 1H8.10714C7.6809 1 7.27212 1.16932 6.97072 1.47072C6.66932 1.77212 6.5 2.1809 6.5 2.60714V3.57143H2.64286C2.47236 3.57143 2.30885 3.63916 2.18829 3.75972C2.06773 3.88028 2 4.04379 2 4.21429C2 4.38478 2.06773 4.5483 2.18829 4.66885C2.30885 4.78941 2.47236 4.85714 2.64286 4.85714H3.32589L4.08929 17.1084C4.14634 18.1872 4.97321 19 6.01786 19H13.4107C14.4606 19 15.271 18.2053 15.3393 17.1116L16.1027 4.85714H16.7857C16.9129 4.85718 17.0372 4.8195 17.1429 4.74887C17.2487 4.67824 17.3311 4.57783 17.3797 4.46036C17.4284 4.34288 17.4411 4.21361 17.4163 4.0889C17.3915 3.96419 17.3302 3.84964 17.2403 3.75975C17.1806 3.70004 17.1097 3.65269 17.0317 3.62037C16.9537 3.58806 16.8701 3.57143 16.7857 3.57143ZM7.16576 16.4286H7.14286C6.97625 16.4287 6.81609 16.3641 6.69617 16.2485C6.57624 16.1328 6.50591 15.9751 6.5 15.8086L6.17857 6.80862C6.17556 6.72419 6.1892 6.64 6.21873 6.56085C6.24826 6.48171 6.29308 6.40915 6.35065 6.34733C6.40822 6.2855 6.4774 6.23563 6.55425 6.20054C6.6311 6.16546 6.7141 6.14586 6.79853 6.14286C6.96902 6.13679 7.13494 6.1987 7.25979 6.31496C7.38465 6.43122 7.4582 6.59232 7.46429 6.76281L7.78571 15.7628C7.7888 15.8473 7.7752 15.9315 7.74569 16.0106C7.71618 16.0898 7.67135 16.1624 7.61375 16.2242C7.55618 16.2861 7.48698 16.3359 7.4101 16.371C7.33323 16.4061 7.2502 16.4256 7.16576 16.4286ZM10.3571 15.7857C10.3572 15.8701 10.3405 15.9537 10.3082 16.0317C10.2759 16.1097 10.2286 16.1806 10.1689 16.2403C10.1092 16.3 10.0383 16.3474 9.96031 16.3797C9.88231 16.412 9.79871 16.4286 9.71429 16.4286C9.62986 16.4286 9.54626 16.412 9.46826 16.3797C9.39026 16.3474 9.31939 16.3 9.25969 16.2403C9.2 16.1806 9.15265 16.1097 9.12034 16.0317C9.08804 15.9537 9.07142 15.8701 9.07143 15.7857V6.78571C9.07143 6.61524 9.13917 6.45171 9.25975 6.33117C9.31943 6.27147 9.3903 6.2241 9.46829 6.19179C9.54629 6.15948 9.62988 6.14284 9.71431 6.14284C9.79873 6.14284 9.88233 6.15948 9.96032 6.19179C10.0383 6.2241 10.1092 6.27147 10.1689 6.33117C10.2894 6.45171 10.3571 6.61524 10.3571 6.78571V15.7857ZM11.6429 3.57143H7.78571V2.60714C7.78498 2.54336 7.80346 2.48083 7.83876 2.42769C7.87405 2.37456 7.92452 2.33328 7.98359 2.30922C8.0228 2.29323 8.0648 2.28524 8.10714 2.28571H11.3214C11.3638 2.28523 11.4058 2.29321 11.445 2.30919C11.4842 2.32518 11.5198 2.34883 11.5498 2.37878C11.5797 2.40872 11.6034 2.44435 11.6194 2.48357C11.6354 2.52278 11.6433 2.5648 11.6429 2.60714V3.57143ZM12.9286 15.8086C12.9227 15.9751 12.8523 16.1328 12.7324 16.2485C12.6125 16.3642 12.4523 16.4287 12.2857 16.4286H12.2624C12.1353 16.4241 12.0123 16.382 11.9092 16.3076C11.806 16.2331 11.7272 16.1298 11.6829 16.0106C11.6534 15.9314 11.6398 15.8472 11.6429 15.7628L11.9643 6.76281C11.9681 6.6571 11.9979 6.55396 12.051 6.46251C12.1042 6.37107 12.1791 6.29414 12.2691 6.23854C12.3591 6.18294 12.4614 6.15039 12.567 6.14376C12.6725 6.13714 12.7781 6.15664 12.8743 6.20055C13.0295 6.27148 13.1501 6.40107 13.2098 6.56088C13.2394 6.64002 13.253 6.7242 13.25 6.80862L12.9286 15.8086Z" fill="#DA1E28"/>
</svg>
