<svg width="40" height="38" viewBox="0 0 40 38" fill="none" xmlns="http://www.w3.org/2000/svg">
<path d="M35.4781 0.251953H4.52409C2.02899 0.251953 0 2.28027 0 4.77832V33.2269C0 35.722 2.02899 37.7482 4.52409 37.7482H35.4779C37.973 37.7482 39.9999 35.722 39.9999 33.2269V4.77832C40 2.28027 37.9732 0.251953 35.4781 0.251953ZM25.866 6.98352C28.2789 6.98352 30.2357 8.94047 30.2357 11.3532C30.2357 13.766 28.2788 15.7229 25.866 15.7229C23.4525 15.7229 21.4963 13.766 21.4963 11.3532C21.4963 8.94047 23.4525 6.98352 25.866 6.98352ZM34.0593 33.5662H6.56633C5.35949 33.5662 4.82201 32.693 5.36605 31.6158L12.8653 16.7622C13.4086 15.6852 14.4442 15.589 15.1776 16.5473L22.7183 26.4019C23.4517 27.3603 24.7335 27.4419 25.5819 26.5832L27.4266 24.7151C28.2744 23.8564 29.5234 23.9627 30.2152 24.951L34.9921 31.7745C35.6827 32.7643 35.2661 33.5662 34.0593 33.5662Z" fill="#212529"/>
</svg>
